<svg xmlns="http://www.w3.org/2000/svg" width="24" height="24" viewBox="0 0 35.668 29"><path d="M29.872,38.836h-6a6.967,6.967,0,0,0,.152-1.45c0-3.1-2.443-5.386-6.409-5.386-3.157,0-3.971,3.142-5.274,5.1a16.148,16.148,0,0,1-1.8,2.153l-.009.009-.009.01C9.451,40.4,8.9,40.8,8.415,40.8H8.229a2.467,2.467,0,0,0-1.541-.518H2.229A2.071,2.071,0,0,0,0,42.15V57.064a2.071,2.071,0,0,0,2.229,1.864H6.688a2.467,2.467,0,0,0,1.541-.518h.187c2,0,4.677,2.589,8.861,2.589H18.76c4.357,0,6.883-2.5,6.962-5.9a5.69,5.69,0,0,0,1.114-4.065,5.758,5.758,0,0,0,.552-1.428h2.483a5.639,5.639,0,0,0,5.8-5.386A5.677,5.677,0,0,0,29.872,38.836Zm0,7.664H23.531a2.773,2.773,0,0,1-.345,3.952,2.576,2.576,0,0,1-.9,3.471c.454,2.533-.7,3.97-3.525,3.97H17.277c-3.169,0-5.379-2.325-8.36-2.568V43.883c1.758-.192,2.993-1.374,4.115-2.563a19.045,19.045,0,0,0,2.146-2.581c1.009-1.514,1.82-3.631,2.433-3.631,1.628,0,3.065.57,3.065,2.279,0,2.279-1.839,3.436-1.839,4.557H29.872a2.451,2.451,0,0,1,2.452,2.279A2.412,2.412,0,0,1,29.872,46.5ZM6.13,54.786a1.616,1.616,0,0,1-1.672,1.554,1.558,1.558,0,1,1,0-3.107A1.616,1.616,0,0,1,6.13,54.786Z" transform="translate(0 -32)" fill="rgba(0,0,0,0.8)"/></svg>